<svg width="38" height="47" viewBox="0 0 38 47" fill="none" xmlns="http://www.w3.org/2000/svg">
<path d="M7.31324 39.5509C6.39579 39.5509 5.67088 39.2904 5.13853 38.7694C4.60618 38.2597 4.34 37.5234 4.34 36.5607V36.2379C4.34 35.1958 4.5722 34.1538 5.03659 33.1117C5.51231 32.0583 6.10129 31.0559 6.80355 30.1045C7.51712 29.1417 8.24769 28.2639 8.99525 27.471C9.75414 26.6782 10.4054 26.0042 10.9491 25.4492C11.5381 24.8829 11.8212 24.2939 11.7986 23.6823C11.7873 23.0706 11.5041 22.4986 10.9491 21.9663C10.4054 21.4113 9.75414 20.7373 8.99525 19.9445C8.24769 19.1516 7.51712 18.2795 6.80355 17.328C6.10129 16.3766 5.51231 15.3798 5.03659 14.3378C4.5722 13.2844 4.34 12.231 4.34 11.1777V10.9058C4.34 9.93173 4.60618 9.18984 5.13853 8.68014C5.67088 8.15911 6.39579 7.8986 7.31324 7.8986H21.6528C22.5816 7.8986 23.3121 8.15911 23.8445 8.68014C24.3768 9.18984 24.643 9.93173 24.643 10.9058V11.1777C24.643 12.231 24.4051 13.2844 23.9294 14.3378C23.465 15.3798 22.8761 16.3766 22.1625 17.328C21.4489 18.2795 20.7183 19.1516 19.9708 19.9445C19.2232 20.7373 18.5719 21.4113 18.0169 21.9663C17.4846 22.4986 17.2071 23.0706 17.1844 23.6823C17.1618 24.2939 17.4393 24.8829 18.0169 25.4492C18.5719 26.0042 19.2232 26.6782 19.9708 27.471C20.7183 28.2639 21.4489 29.1417 22.1625 30.1045C22.8761 31.0559 23.465 32.0583 23.9294 33.1117C24.4051 34.1538 24.643 35.1958 24.643 36.2379V36.5607C24.643 37.5234 24.3768 38.2597 23.8445 38.7694C23.3121 39.2904 22.5816 39.5509 21.6528 39.5509H7.31324ZM8.75739 36.9005H20.2256C20.6221 36.9005 20.8599 36.7249 20.9392 36.3738C21.0298 36.034 20.9449 35.7395 20.6843 35.4903L15.5024 30.5122C15.3665 30.3763 15.2759 30.2687 15.2306 30.1894C15.1853 30.0988 15.1626 29.9516 15.1626 29.7477V22.5439C15.1626 22.1249 15.2136 21.7851 15.3155 21.5245C15.4288 21.2527 15.6383 20.9809 15.9441 20.709C16.4878 20.2446 17.0995 19.7066 17.7791 19.095C18.4587 18.472 19.0533 17.8944 19.563 17.362C19.8009 17.1128 19.8745 16.8636 19.7839 16.6144C19.6933 16.3653 19.4894 16.2407 19.1722 16.2407H9.81077C9.49362 16.2407 9.28974 16.3653 9.19913 16.6144C9.10852 16.8636 9.18214 17.1128 9.42 17.362C9.91837 17.8944 10.513 18.472 11.2039 19.095C11.8949 19.7066 12.5065 20.2446 13.0389 20.709C13.3447 20.9809 13.5486 21.2527 13.6505 21.5245C13.7638 21.7851 13.8204 22.1249 13.8204 22.5439V29.7477C13.8204 29.9516 13.7921 30.0988 13.7355 30.1894C13.6901 30.2687 13.5995 30.3763 13.4636 30.5122L8.29866 35.4903C8.02682 35.7395 7.93621 36.034 8.02682 36.3738C8.12876 36.7249 8.37229 36.9005 8.75739 36.9005Z" fill="white"/>
<mask id="path-2-outside-1_1363_7898" maskUnits="userSpaceOnUse" x="14" y="21" width="23" height="24" fill="black">
<rect fill="white" x="14" y="21" width="23" height="24"/>
<path d="M25.49 43.1144C24.0659 43.1144 22.7317 42.8449 21.4873 42.3058C20.2428 41.7735 19.1481 41.0348 18.2032 40.0898C17.2582 39.1449 16.5162 38.0502 15.9772 36.8058C15.4448 35.5614 15.1787 34.2271 15.1787 32.803C15.1787 31.3789 15.4448 30.0447 15.9772 28.8002C16.5162 27.5492 17.2582 26.4545 18.2032 25.5162C19.1481 24.5712 20.2428 23.8326 21.4873 23.3002C22.7317 22.7612 24.0659 22.4916 25.49 22.4916C26.9141 22.4916 28.2484 22.7612 29.4928 23.3002C30.7439 23.8326 31.8419 24.5712 32.7868 25.5162C33.7318 26.4545 34.4705 27.5492 35.0028 28.8002C35.5419 30.0447 35.8114 31.3789 35.8114 32.803C35.8114 34.2271 35.5419 35.5614 35.0028 36.8058C34.4705 38.0502 33.7318 39.1449 32.7868 40.0898C31.8419 41.0348 30.7439 41.7735 29.4928 42.3058C28.2484 42.8449 26.9141 43.1144 25.49 43.1144ZM21.2377 35.3584C21.2377 35.8775 21.3775 36.2601 21.6569 36.5063C21.9364 36.7525 22.3324 36.8856 22.8448 36.9056L21.7867 38.6025C21.7202 38.709 21.7102 38.8155 21.7568 38.9219C21.81 39.0218 21.8998 39.0717 22.0263 39.0717H22.3158C22.4622 39.0717 22.5686 39.0085 22.6352 38.882L22.9147 38.4428H28.0454L28.3249 38.882C28.3981 39.0085 28.5046 39.0717 28.6443 39.0717H28.9238C29.0503 39.0717 29.1368 39.0218 29.1833 38.9219C29.2366 38.8155 29.2266 38.7023 29.1534 38.5826L28.1153 36.9056C28.661 36.8923 29.0669 36.7559 29.3331 36.4963C29.6059 36.2301 29.7423 35.8508 29.7423 35.3584V31.7948C29.7423 31.1493 29.7057 30.5471 29.6325 29.9881C29.566 29.4291 29.4895 28.95 29.4029 28.5507C29.2832 28.0649 29.0735 27.6723 28.7741 27.3728C28.4813 27.0667 28.0887 26.8804 27.5962 26.8138C27.4232 26.7939 27.147 26.7739 26.7677 26.7539C26.395 26.7273 25.9692 26.714 25.49 26.714C25.0109 26.714 24.5817 26.7273 24.2023 26.7539C23.823 26.7739 23.5502 26.7939 23.3838 26.8138C22.8914 26.8804 22.4954 27.0667 22.196 27.3728C21.8965 27.6723 21.6902 28.0649 21.5771 28.5507C21.4839 28.95 21.4041 29.4291 21.3375 29.9881C21.271 30.5471 21.2377 31.1493 21.2377 31.7948V35.3584ZM22.3557 32.9827V31.8148C22.3557 31.329 22.3756 30.8965 22.4156 30.5171C22.4622 30.1378 22.5021 29.865 22.5354 29.6986C22.5886 29.4457 22.7283 29.306 22.9546 29.2794C23.2341 29.2461 23.5668 29.2228 23.9528 29.2095C24.3388 29.1895 24.8512 29.1762 25.49 29.1696C26.1289 29.1696 26.6379 29.1796 27.0173 29.1995C27.4032 29.2195 27.7326 29.2461 28.0055 29.2794C28.2384 29.306 28.3815 29.4457 28.4347 29.6986C28.468 29.865 28.5079 30.1378 28.5545 30.5171C28.6011 30.8965 28.6244 31.329 28.6244 31.8148V32.9827C28.6244 33.3021 28.4746 33.4785 28.1752 33.5117C27.8025 33.5517 27.3766 33.5816 26.8975 33.6016C26.4183 33.6215 25.9492 33.6315 25.49 33.6315C24.9111 33.6249 24.382 33.6115 23.9029 33.5916C23.4238 33.5716 23.0577 33.545 22.8049 33.5117C22.5054 33.4785 22.3557 33.3021 22.3557 32.9827ZM22.5254 35.1587C22.5254 34.9658 22.5886 34.8061 22.715 34.6796C22.8415 34.5465 23.0012 34.48 23.1942 34.48C23.3872 34.48 23.5469 34.5465 23.6733 34.6796C23.8064 34.8061 23.8729 34.9658 23.8729 35.1587C23.8729 35.3584 23.8064 35.5214 23.6733 35.6479C23.5402 35.7676 23.3805 35.8275 23.1942 35.8275C23.0012 35.8275 22.8415 35.7676 22.715 35.6479C22.5886 35.5214 22.5254 35.3584 22.5254 35.1587ZM27.0971 35.1587C27.0971 34.9658 27.1637 34.8027 27.2968 34.6696C27.4298 34.5365 27.5896 34.47 27.7759 34.47C27.9689 34.47 28.1319 34.5365 28.265 34.6696C28.3981 34.8027 28.4646 34.9658 28.4646 35.1587C28.4646 35.3517 28.3981 35.5148 28.265 35.6479C28.1319 35.7743 27.9689 35.8375 27.7759 35.8375C27.5896 35.8375 27.4298 35.7743 27.2968 35.6479C27.1637 35.5148 27.0971 35.3517 27.0971 35.1587ZM23.8929 28.0316C23.8929 27.9252 23.9262 27.8453 23.9927 27.7921C24.0593 27.7322 24.1391 27.7022 24.2323 27.7022H26.7378C26.8376 27.7022 26.9174 27.7322 26.9773 27.7921C27.0439 27.8453 27.0771 27.9252 27.0771 28.0316C27.0771 28.1248 27.0439 28.2047 26.9773 28.2712C26.9174 28.3311 26.8376 28.361 26.7378 28.361H24.2323C24.1391 28.361 24.0593 28.3311 23.9927 28.2712C23.9262 28.2047 23.8929 28.1248 23.8929 28.0316ZM23.4138 37.6542L23.863 36.9156H27.0971L27.5563 37.6542H23.4138Z"/>
</mask>
<path d="M25.49 43.1144C24.0659 43.1144 22.7317 42.8449 21.4873 42.3058C20.2428 41.7735 19.1481 41.0348 18.2032 40.0898C17.2582 39.1449 16.5162 38.0502 15.9772 36.8058C15.4448 35.5614 15.1787 34.2271 15.1787 32.803C15.1787 31.3789 15.4448 30.0447 15.9772 28.8002C16.5162 27.5492 17.2582 26.4545 18.2032 25.5162C19.1481 24.5712 20.2428 23.8326 21.4873 23.3002C22.7317 22.7612 24.0659 22.4916 25.49 22.4916C26.9141 22.4916 28.2484 22.7612 29.4928 23.3002C30.7439 23.8326 31.8419 24.5712 32.7868 25.5162C33.7318 26.4545 34.4705 27.5492 35.0028 28.8002C35.5419 30.0447 35.8114 31.3789 35.8114 32.803C35.8114 34.2271 35.5419 35.5614 35.0028 36.8058C34.4705 38.0502 33.7318 39.1449 32.7868 40.0898C31.8419 41.0348 30.7439 41.7735 29.4928 42.3058C28.2484 42.8449 26.9141 43.1144 25.49 43.1144ZM21.2377 35.3584C21.2377 35.8775 21.3775 36.2601 21.6569 36.5063C21.9364 36.7525 22.3324 36.8856 22.8448 36.9056L21.7867 38.6025C21.7202 38.709 21.7102 38.8155 21.7568 38.9219C21.81 39.0218 21.8998 39.0717 22.0263 39.0717H22.3158C22.4622 39.0717 22.5686 39.0085 22.6352 38.882L22.9147 38.4428H28.0454L28.3249 38.882C28.3981 39.0085 28.5046 39.0717 28.6443 39.0717H28.9238C29.0503 39.0717 29.1368 39.0218 29.1833 38.9219C29.2366 38.8155 29.2266 38.7023 29.1534 38.5826L28.1153 36.9056C28.661 36.8923 29.0669 36.7559 29.3331 36.4963C29.6059 36.2301 29.7423 35.8508 29.7423 35.3584V31.7948C29.7423 31.1493 29.7057 30.5471 29.6325 29.9881C29.566 29.4291 29.4895 28.95 29.4029 28.5507C29.2832 28.0649 29.0735 27.6723 28.7741 27.3728C28.4813 27.0667 28.0887 26.8804 27.5962 26.8138C27.4232 26.7939 27.147 26.7739 26.7677 26.7539C26.395 26.7273 25.9692 26.714 25.49 26.714C25.0109 26.714 24.5817 26.7273 24.2023 26.7539C23.823 26.7739 23.5502 26.7939 23.3838 26.8138C22.8914 26.8804 22.4954 27.0667 22.196 27.3728C21.8965 27.6723 21.6902 28.0649 21.5771 28.5507C21.4839 28.95 21.4041 29.4291 21.3375 29.9881C21.271 30.5471 21.2377 31.1493 21.2377 31.7948V35.3584ZM22.3557 32.9827V31.8148C22.3557 31.329 22.3756 30.8965 22.4156 30.5171C22.4622 30.1378 22.5021 29.865 22.5354 29.6986C22.5886 29.4457 22.7283 29.306 22.9546 29.2794C23.2341 29.2461 23.5668 29.2228 23.9528 29.2095C24.3388 29.1895 24.8512 29.1762 25.49 29.1696C26.1289 29.1696 26.6379 29.1796 27.0173 29.1995C27.4032 29.2195 27.7326 29.2461 28.0055 29.2794C28.2384 29.306 28.3815 29.4457 28.4347 29.6986C28.468 29.865 28.5079 30.1378 28.5545 30.5171C28.6011 30.8965 28.6244 31.329 28.6244 31.8148V32.9827C28.6244 33.3021 28.4746 33.4785 28.1752 33.5117C27.8025 33.5517 27.3766 33.5816 26.8975 33.6016C26.4183 33.6215 25.9492 33.6315 25.49 33.6315C24.9111 33.6249 24.382 33.6115 23.9029 33.5916C23.4238 33.5716 23.0577 33.545 22.8049 33.5117C22.5054 33.4785 22.3557 33.3021 22.3557 32.9827ZM22.5254 35.1587C22.5254 34.9658 22.5886 34.8061 22.715 34.6796C22.8415 34.5465 23.0012 34.48 23.1942 34.48C23.3872 34.48 23.5469 34.5465 23.6733 34.6796C23.8064 34.8061 23.8729 34.9658 23.8729 35.1587C23.8729 35.3584 23.8064 35.5214 23.6733 35.6479C23.5402 35.7676 23.3805 35.8275 23.1942 35.8275C23.0012 35.8275 22.8415 35.7676 22.715 35.6479C22.5886 35.5214 22.5254 35.3584 22.5254 35.1587ZM27.0971 35.1587C27.0971 34.9658 27.1637 34.8027 27.2968 34.6696C27.4298 34.5365 27.5896 34.47 27.7759 34.47C27.9689 34.47 28.1319 34.5365 28.265 34.6696C28.3981 34.8027 28.4646 34.9658 28.4646 35.1587C28.4646 35.3517 28.3981 35.5148 28.265 35.6479C28.1319 35.7743 27.9689 35.8375 27.7759 35.8375C27.5896 35.8375 27.4298 35.7743 27.2968 35.6479C27.1637 35.5148 27.0971 35.3517 27.0971 35.1587ZM23.8929 28.0316C23.8929 27.9252 23.9262 27.8453 23.9927 27.7921C24.0593 27.7322 24.1391 27.7022 24.2323 27.7022H26.7378C26.8376 27.7022 26.9174 27.7322 26.9773 27.7921C27.0439 27.8453 27.0771 27.9252 27.0771 28.0316C27.0771 28.1248 27.0439 28.2047 26.9773 28.2712C26.9174 28.3311 26.8376 28.361 26.7378 28.361H24.2323C24.1391 28.361 24.0593 28.3311 23.9927 28.2712C23.9262 28.2047 23.8929 28.1248 23.8929 28.0316ZM23.4138 37.6542L23.863 36.9156H27.0971L27.5563 37.6542H23.4138Z" fill="white"/>
<path d="M21.4873 42.3058L21.8847 41.3882L21.8806 41.3864L21.4873 42.3058ZM15.9772 36.8058L15.0578 37.1991L15.0596 37.2032L15.9772 36.8058ZM15.9772 28.8002L15.0588 28.4046L15.0578 28.4069L15.9772 28.8002ZM18.2032 25.5162L18.9078 26.2258L18.9103 26.2233L18.2032 25.5162ZM21.4873 23.3002L21.8806 24.2196L21.8847 24.2178L21.4873 23.3002ZM29.4928 23.3002L29.0953 24.2178L29.1012 24.2203L29.4928 23.3002ZM32.7868 25.5162L32.0797 26.2233L32.0822 26.2258L32.7868 25.5162ZM35.0028 28.8002L34.0827 29.1918L34.0852 29.1977L35.0028 28.8002ZM35.0028 36.8058L34.0852 36.4083L34.0834 36.4124L35.0028 36.8058ZM29.4928 42.3058L29.1012 41.3857L29.0953 41.3882L29.4928 42.3058ZM22.8448 36.9056L23.6934 37.4347L24.6045 35.9734L22.8837 35.9064L22.8448 36.9056ZM21.7867 38.6025L22.6347 39.1325L22.6353 39.1316L21.7867 38.6025ZM21.7568 38.9219L20.8406 39.3228L20.8562 39.3583L20.8744 39.3925L21.7568 38.9219ZM22.6352 38.882L21.7915 38.3451L21.7694 38.3799L21.7503 38.4163L22.6352 38.882ZM22.9147 38.4428V37.4428H22.3657L22.071 37.9059L22.9147 38.4428ZM28.0454 38.4428L28.8891 37.9059L28.5943 37.4428H28.0454V38.4428ZM28.3249 38.882L29.1903 38.381L29.1798 38.3628L29.1686 38.3451L28.3249 38.882ZM29.1833 38.9219L28.2889 38.4747L28.2829 38.4868L28.2772 38.4991L29.1833 38.9219ZM29.1534 38.5826L30.0067 38.0611L30.0037 38.0562L29.1534 38.5826ZM28.1153 36.9056L28.0909 35.9059L26.3466 35.9484L27.265 37.4319L28.1153 36.9056ZM29.3331 36.4963L30.0312 37.2123L30.0314 37.2121L29.3331 36.4963ZM29.6325 29.9881L28.6395 30.1063L28.641 30.1179L29.6325 29.9881ZM29.4029 28.5507L30.3803 28.3389L30.3773 28.3251L30.3739 28.3113L29.4029 28.5507ZM28.7741 27.3728L28.0514 28.064L28.0591 28.0721L28.067 28.0799L28.7741 27.3728ZM27.5962 26.8138L27.7301 25.8228L27.7205 25.8215L27.7108 25.8204L27.5962 26.8138ZM26.7677 26.7539L26.6965 27.7514L26.7058 27.7521L26.7151 27.7526L26.7677 26.7539ZM24.2023 26.7539L24.2549 27.7526L24.2636 27.7521L24.2723 27.7515L24.2023 26.7539ZM23.3838 26.8138L23.2647 25.821L23.2573 25.8218L23.2499 25.8228L23.3838 26.8138ZM22.196 27.3728L22.9031 28.08L22.9108 28.0721L22.196 27.3728ZM21.5771 28.5507L22.5509 28.7779L22.551 28.7775L21.5771 28.5507ZM22.4156 30.5171L21.423 30.3952L21.422 30.4038L21.4211 30.4125L22.4156 30.5171ZM22.5354 29.6986L21.5568 29.4926L21.5548 29.5025L22.5354 29.6986ZM22.9546 29.2794L23.0714 30.2725L23.0728 30.2724L22.9546 29.2794ZM23.9528 29.2095L23.9873 30.2089L23.9959 30.2086L24.0045 30.2082L23.9528 29.2095ZM25.49 29.1696V28.1695L25.4796 28.1696L25.49 29.1696ZM27.0173 29.1995L26.9647 30.1981L26.9656 30.1982L27.0173 29.1995ZM28.0055 29.2794L27.8844 30.272L27.8919 30.2729L28.0055 29.2794ZM28.4347 29.6986L29.4153 29.5025L29.4132 29.4926L28.4347 29.6986ZM28.1752 33.5117L28.2817 34.506L28.2856 34.5056L28.1752 33.5117ZM25.49 33.6315L25.4785 34.6315H25.49V33.6315ZM22.8049 33.5117L22.9353 32.5203L22.9253 32.519L22.9153 32.5178L22.8049 33.5117ZM22.715 34.6796L23.4221 35.3867L23.4312 35.3777L23.44 35.3684L22.715 34.6796ZM23.6733 34.6796L22.9483 35.3684L22.966 35.387L22.9846 35.4046L23.6733 34.6796ZM23.6733 35.6479L24.3423 36.3912L24.3523 36.3821L24.3621 36.3729L23.6733 35.6479ZM22.715 35.6479L22.0079 36.355L22.0175 36.3645L22.0273 36.3738L22.715 35.6479ZM28.265 35.6479L28.9538 36.3729L28.963 36.364L28.9721 36.355L28.265 35.6479ZM27.2968 35.6479L26.5896 36.355L26.5987 36.364L26.608 36.3729L27.2968 35.6479ZM23.9927 27.7921L24.6174 28.5729L24.6401 28.5548L24.6617 28.5354L23.9927 27.7921ZM26.9773 27.7921L26.2702 28.4992L26.3094 28.5383L26.3526 28.5729L26.9773 27.7921ZM23.9927 28.2712L23.2856 28.9783L23.3042 28.9969L23.3238 29.0145L23.9927 28.2712ZM23.4138 37.6542L22.5593 37.1347L21.6353 38.6542H23.4138V37.6542ZM23.863 36.9156V35.9156H23.3007L23.0085 36.396L23.863 36.9156ZM27.0971 36.9156L27.9464 36.3876L27.653 35.9156H27.0971V36.9156ZM27.5563 37.6542V38.6542H29.3554L28.4056 37.1263L27.5563 37.6542ZM25.49 43.1144V42.1144C24.1957 42.1144 22.9974 41.8702 21.8847 41.3882L21.4873 42.3058L21.0898 43.2234C22.4659 43.8195 23.9362 44.1144 25.49 44.1144V43.1144ZM21.4873 42.3058L21.8806 41.3864C20.7518 40.9035 19.764 40.2364 18.9103 39.3827L18.2032 40.0898L17.4961 40.7969C18.5323 41.8332 19.7339 42.6434 21.0939 43.2252L21.4873 42.3058ZM18.2032 40.0898L18.9103 39.3827C18.0557 38.5281 17.3846 37.5389 16.8948 36.4083L15.9772 36.8058L15.0596 37.2032C15.6479 38.5615 16.4607 39.7616 17.4961 40.7969L18.2032 40.0898ZM15.9772 36.8058L16.8966 36.4124C16.4202 35.2988 16.1787 34.0991 16.1787 32.803H15.1787H14.1787C14.1787 34.3551 14.4695 35.8239 15.0578 37.1991L15.9772 36.8058ZM15.1787 32.803H16.1787C16.1787 31.5069 16.4202 30.3072 16.8966 29.1936L15.9772 28.8002L15.0578 28.4069C14.4695 29.7821 14.1787 31.2509 14.1787 32.803H15.1787ZM15.9772 28.8002L16.8956 29.1959C17.3853 28.0594 18.0556 27.072 18.9078 26.2258L18.2032 25.5162L17.4986 24.8066C16.4609 25.837 15.6472 27.0389 15.0588 28.4046L15.9772 28.8002ZM18.2032 25.5162L18.9103 26.2233C19.764 25.3696 20.7518 24.7025 21.8806 24.2196L21.4873 23.3002L21.0939 22.3808C19.7339 22.9626 18.5323 23.7728 17.4961 24.8091L18.2032 25.5162ZM21.4873 23.3002L21.8847 24.2178C22.9974 23.7358 24.1957 23.4916 25.49 23.4916V22.4916V21.4916C23.9362 21.4916 22.4659 21.7865 21.0898 22.3826L21.4873 23.3002ZM25.49 22.4916V23.4916C26.7844 23.4916 27.9826 23.7358 29.0953 24.2178L29.4928 23.3002L29.8903 22.3826C28.5141 21.7865 27.0439 21.4916 25.49 21.4916V22.4916ZM29.4928 23.3002L29.1012 24.2203C30.2365 24.7034 31.2269 25.3705 32.0797 26.2233L32.7868 25.5162L33.4939 24.8091C32.4568 23.7719 31.2512 22.9617 29.8843 22.38L29.4928 23.3002ZM32.7868 25.5162L32.0822 26.2258C32.9335 27.0711 33.5998 28.0571 34.0827 29.1918L35.0028 28.8002L35.923 28.4087C35.3411 27.0412 34.5301 25.8379 33.4914 24.8066L32.7868 25.5162ZM35.0028 28.8002L34.0852 29.1977C34.5672 30.3104 34.8114 31.5087 34.8114 32.803H35.8114H36.8114C36.8114 31.2492 36.5165 29.7789 35.9204 28.4028L35.0028 28.8002ZM35.8114 32.803H34.8114C34.8114 34.0974 34.5672 35.2956 34.0852 36.4083L35.0028 36.8058L35.9204 37.2032C36.5165 35.8271 36.8114 34.3568 36.8114 32.803H35.8114ZM35.0028 36.8058L34.0834 36.4124C33.6005 37.5412 32.9334 38.5291 32.0797 39.3827L32.7868 40.0898L33.4939 40.7969C34.5302 39.7607 35.3404 38.5591 35.9222 37.1991L35.0028 36.8058ZM32.7868 40.0898L32.0797 39.3827C31.2269 40.2355 30.2365 40.9026 29.1012 41.3857L29.4928 42.3058L29.8843 43.226C31.2512 42.6444 32.4568 41.8341 33.4939 40.7969L32.7868 40.0898ZM29.4928 42.3058L29.0953 41.3882C27.9826 41.8702 26.7844 42.1144 25.49 42.1144V43.1144V44.1144C27.0439 44.1144 28.5141 43.8195 29.8903 43.2234L29.4928 42.3058ZM21.2377 35.3584H20.2377C20.2377 36.0474 20.4263 36.7549 20.9959 37.2567L21.6569 36.5063L22.318 35.756C22.315 35.7534 22.2999 35.7411 22.2818 35.6916C22.2614 35.6357 22.2377 35.5315 22.2377 35.3584H21.2377ZM21.6569 36.5063L20.9959 37.2567C21.503 37.7034 22.1495 37.8793 22.8059 37.9048L22.8448 36.9056L22.8837 35.9064C22.5153 35.892 22.3699 35.8017 22.318 35.756L21.6569 36.5063ZM22.8448 36.9056L21.9962 36.3765L20.9382 38.0734L21.7867 38.6025L22.6353 39.1316L23.6934 37.4347L22.8448 36.9056ZM21.7867 38.6025L20.9387 38.0725C20.7138 38.4324 20.6496 38.8862 20.8406 39.3228L21.7568 38.9219L22.6729 38.5211C22.7115 38.6094 22.7371 38.7256 22.7249 38.8556C22.7131 38.9822 22.6697 39.0766 22.6347 39.1325L21.7867 38.6025ZM21.7568 38.9219L20.8744 39.3925C20.9822 39.5946 21.1484 39.7806 21.3784 39.9084C21.6024 40.0329 21.8319 40.0717 22.0263 40.0717V39.0717V38.0717C22.0943 38.0717 22.2155 38.0855 22.3497 38.1601C22.4899 38.238 22.5846 38.3491 22.6391 38.4514L21.7568 38.9219ZM22.0263 39.0717V40.0717H22.3158V39.0717V38.0717H22.0263V39.0717ZM22.3158 39.0717V40.0717C22.5356 40.0717 22.7821 40.023 23.016 39.8841C23.2512 39.7445 23.4143 39.5488 23.5201 39.3478L22.6352 38.882L21.7503 38.4163C21.7895 38.3417 21.8661 38.2408 21.9949 38.1644C22.1223 38.0888 22.2423 38.0717 22.3158 38.0717V39.0717ZM22.6352 38.882L23.4788 39.4189L23.7583 38.9797L22.9147 38.4428L22.071 37.9059L21.7915 38.3451L22.6352 38.882ZM22.9147 38.4428V39.4428H28.0454V38.4428V37.4428H22.9147V38.4428ZM28.0454 38.4428L27.2017 38.9797L27.4812 39.4189L28.3249 38.882L29.1686 38.3451L28.8891 37.9059L28.0454 38.4428ZM28.3249 38.882L27.4595 39.3831C27.7015 39.8011 28.1282 40.0717 28.6443 40.0717V39.0717V38.0717C28.7305 38.0717 28.8498 38.0929 28.9702 38.1644C29.0884 38.2346 29.1567 38.3229 29.1903 38.381L28.3249 38.882ZM28.6443 39.0717V40.0717H28.9238V39.0717V38.0717H28.6443V39.0717ZM28.9238 39.0717V40.0717C29.1166 40.0717 29.3527 40.0334 29.5832 39.9004C29.8225 39.7624 29.9888 39.5607 30.0895 39.3448L29.1833 38.9219L28.2772 38.4991C28.3313 38.383 28.4311 38.2562 28.5838 38.1681C28.7279 38.085 28.8575 38.0717 28.9238 38.0717V39.0717ZM29.1833 38.9219L30.0778 39.3692C30.315 38.8948 30.222 38.4134 30.0067 38.0611L29.1534 38.5826L28.3001 39.104C28.2749 39.0628 28.231 38.9741 28.2197 38.8451C28.2076 38.7083 28.2369 38.5787 28.2889 38.4747L29.1833 38.9219ZM29.1534 38.5826L30.0037 38.0562L28.9655 36.3792L28.1153 36.9056L27.265 37.4319L28.3031 39.1089L29.1534 38.5826ZM28.1153 36.9056L28.1397 37.9053C28.8212 37.8887 29.5153 37.7153 30.0312 37.2123L29.3331 36.4963L28.635 35.7803C28.6185 35.7964 28.5007 35.8959 28.0909 35.9059L28.1153 36.9056ZM29.3331 36.4963L30.0314 37.2121C30.5491 36.707 30.7423 36.0378 30.7423 35.3584H29.7423H28.7423C28.7423 35.6638 28.6627 35.7533 28.6347 35.7806L29.3331 36.4963ZM29.7423 35.3584H30.7423V31.7948H29.7423H28.7423V35.3584H29.7423ZM29.7423 31.7948H30.7423C30.7423 31.112 30.7036 30.4659 30.6241 29.8583L29.6325 29.9881L28.641 30.1179C28.7078 30.6282 28.7423 31.1867 28.7423 31.7948H29.7423ZM29.6325 29.9881L30.6255 29.8699C30.5565 29.2903 30.4754 28.7782 30.3803 28.3389L29.4029 28.5507L28.4256 28.7624C28.5035 29.1217 28.5755 29.5679 28.6395 30.1063L29.6325 29.9881ZM29.4029 28.5507L30.3739 28.3113C30.2184 27.6809 29.9313 27.1158 29.4812 26.6657L28.7741 27.3728L28.067 28.0799C28.2158 28.2287 28.3479 28.4489 28.432 28.7901L29.4029 28.5507ZM28.7741 27.3728L29.4967 26.6816C29.0212 26.1844 28.4065 25.9142 27.7301 25.8228L27.5962 26.8138L27.4623 27.8048C27.7708 27.8465 27.9414 27.949 28.0514 28.064L28.7741 27.3728ZM27.5962 26.8138L27.7108 25.8204C27.5047 25.7966 27.2021 25.7754 26.8203 25.7553L26.7677 26.7539L26.7151 27.7526C27.092 27.7724 27.3417 27.7911 27.4816 27.8072L27.5962 26.8138ZM26.7677 26.7539L26.839 25.7565C26.4371 25.7278 25.9867 25.714 25.49 25.714V26.714V27.714C25.9516 27.714 26.353 27.7269 26.6965 27.7514L26.7677 26.7539ZM25.49 26.714V25.714C24.9932 25.714 24.54 25.7278 24.1323 25.7564L24.2023 26.7539L24.2723 27.7515C24.6233 27.7269 25.0286 27.714 25.49 27.714V26.714ZM24.2023 26.7539L24.1498 25.7553C23.7688 25.7754 23.467 25.7967 23.2647 25.821L23.3838 26.8138L23.503 27.8067C23.6334 27.7911 23.8772 27.7724 24.2549 27.7526L24.2023 26.7539ZM23.3838 26.8138L23.2499 25.8228C22.5737 25.9142 21.9606 26.1834 21.4811 26.6735L22.196 27.3728L22.9108 28.0721C23.0303 27.95 23.2091 27.8465 23.5177 27.8048L23.3838 26.8138ZM22.196 27.3728L21.4889 26.6657C21.0354 27.1191 20.751 27.689 20.6032 28.3239L21.5771 28.5507L22.551 28.7775C22.6294 28.4408 22.7576 28.2254 22.9031 28.0799L22.196 27.3728ZM21.5771 28.5507L20.6032 28.3235C20.4993 28.7691 20.414 29.2867 20.3445 29.8699L21.3375 29.9881L22.3305 30.1063C22.3942 29.5715 22.4686 29.1308 22.5509 28.7779L21.5771 28.5507ZM21.3375 29.9881L20.3445 29.8699C20.2727 30.4733 20.2377 31.1154 20.2377 31.7948H21.2377H22.2377C22.2377 31.1832 22.2693 30.6209 22.3305 30.1063L21.3375 29.9881ZM21.2377 31.7948H20.2377V35.3584H21.2377H22.2377V31.7948H21.2377ZM22.3557 32.9827H23.3557V31.8148H22.3557H21.3557V32.9827H22.3557ZM22.3557 31.8148H23.3557C23.3557 31.355 23.3746 30.9585 23.4101 30.6218L22.4156 30.5171L21.4211 30.4125C21.3767 30.8344 21.3557 31.303 21.3557 31.8148H22.3557ZM22.4156 30.5171L23.4081 30.639C23.4545 30.2617 23.4906 30.0212 23.5159 29.8947L22.5354 29.6986L21.5548 29.5025C21.5135 29.7088 21.4699 30.0139 21.423 30.3952L22.4156 30.5171ZM22.5354 29.6986L23.5139 29.9046C23.5127 29.9105 23.4908 30.0076 23.3872 30.1113C23.2744 30.2241 23.1459 30.2638 23.0714 30.2725L22.9546 29.2794L22.8378 28.2862C22.5371 28.3216 22.2256 28.4445 21.973 28.697C21.7296 28.9404 21.6113 29.2338 21.5568 29.4926L22.5354 29.6986ZM22.9546 29.2794L23.0728 30.2724C23.3164 30.2434 23.6198 30.2216 23.9873 30.2089L23.9528 29.2095L23.9183 28.2101C23.5139 28.224 23.1517 28.2488 22.8364 28.2864L22.9546 29.2794ZM23.9528 29.2095L24.0045 30.2082C24.3708 30.1892 24.8677 30.1761 25.5004 30.1695L25.49 29.1696L25.4796 28.1696C24.8346 28.1763 24.3068 28.1899 23.9011 28.2108L23.9528 29.2095ZM25.49 29.1696V30.1696C26.1214 30.1696 26.6107 30.1795 26.9647 30.1981L27.0173 29.1995L27.0698 28.2009C26.6652 28.1796 26.1363 28.1696 25.49 28.1696V29.1696ZM27.0173 29.1995L26.9656 30.1982C27.3369 30.2174 27.6418 30.2424 27.8844 30.272L28.0055 29.2794L28.1265 28.2867C27.8235 28.2498 27.4696 28.2216 27.0689 28.2009L27.0173 29.1995ZM28.0055 29.2794L27.8919 30.2729C27.8273 30.2655 27.7022 30.2304 27.5887 30.1195C27.4825 30.0158 27.4585 29.9158 27.4561 29.9046L28.4347 29.6986L29.4132 29.4926C29.3576 29.2285 29.2355 28.9322 28.9862 28.6888C28.7296 28.4381 28.4165 28.3198 28.119 28.2858L28.0055 29.2794ZM28.4347 29.6986L27.4541 29.8947C27.4794 30.0212 27.5156 30.2617 27.5619 30.639L28.5545 30.5171L29.547 30.3952C29.5002 30.0139 29.4565 29.7088 29.4153 29.5025L28.4347 29.6986ZM28.5545 30.5171L27.5619 30.639C27.6024 30.9688 27.6244 31.3594 27.6244 31.8148H28.6244H29.6244C29.6244 31.2986 29.5997 30.8241 29.547 30.3952L28.5545 30.5171ZM28.6244 31.8148H27.6244V32.9827H28.6244H29.6244V31.8148H28.6244ZM28.6244 32.9827H27.6244C27.6244 32.9952 27.6216 32.8583 27.7498 32.7073C27.8852 32.5477 28.0401 32.5206 28.0647 32.5178L28.1752 33.5117L28.2856 34.5056C28.6097 34.4696 28.9892 34.3376 29.2744 34.0017C29.5523 33.6744 29.6244 33.2896 29.6244 32.9827H28.6244ZM28.1752 33.5117L28.0686 32.5174C27.7225 32.5545 27.3189 32.5831 26.8558 32.6024L26.8975 33.6016L26.9391 34.6007C27.4343 34.5801 27.8825 34.5488 28.2817 34.506L28.1752 33.5117ZM26.8975 33.6016L26.8558 32.6024C26.39 32.6218 25.9347 32.6315 25.49 32.6315V33.6315V34.6315C25.9637 34.6315 26.4467 34.6212 26.9391 34.6007L26.8975 33.6016ZM25.49 33.6315L25.5015 32.6316C24.9306 32.625 24.4118 32.6119 23.9445 32.5924L23.9029 33.5916L23.8613 34.5907C24.3522 34.6112 24.8915 34.6247 25.4785 34.6314L25.49 33.6315ZM23.9029 33.5916L23.9445 32.5924C23.4741 32.5728 23.1434 32.5477 22.9353 32.5203L22.8049 33.5117L22.6744 34.5032C22.9721 34.5423 23.3734 34.5704 23.8613 34.5907L23.9029 33.5916ZM22.8049 33.5117L22.9153 32.5178C22.94 32.5206 23.0948 32.5477 23.2303 32.7073C23.3585 32.8583 23.3557 32.9952 23.3557 32.9827H22.3557H21.3557C21.3557 33.2896 21.4278 33.6744 21.7057 34.0017C21.9909 34.3376 22.3703 34.4696 22.6944 34.5056L22.8049 33.5117ZM22.5254 35.1588H23.5254C23.5254 35.1728 23.5227 35.2114 23.5026 35.2623C23.4819 35.3147 23.4515 35.3574 23.4221 35.3867L22.715 34.6796L22.0079 33.9725C21.6781 34.3023 21.5254 34.7238 21.5254 35.1588H22.5254ZM22.715 34.6796L23.44 35.3684C23.4133 35.3965 23.3707 35.4295 23.3143 35.453C23.2589 35.476 23.2145 35.48 23.1942 35.48V34.48V33.48C22.7428 33.48 22.3159 33.6479 21.99 33.9909L22.715 34.6796ZM23.1942 34.48V35.48C23.1739 35.48 23.1294 35.476 23.0741 35.453C23.0176 35.4295 22.975 35.3965 22.9483 35.3684L23.6733 34.6796L24.3983 33.9909C24.0725 33.6479 23.6455 33.48 23.1942 33.48V34.48ZM23.6733 34.6796L22.9846 35.4046C22.9564 35.3779 22.9235 35.3353 22.9 35.2788C22.8769 35.2235 22.8729 35.179 22.8729 35.1588H23.8729H24.8729C24.8729 34.7074 24.705 34.2804 24.3621 33.9546L23.6733 34.6796ZM23.8729 35.1588H22.8729C22.8729 35.1462 22.8754 35.1063 22.8972 35.0529C22.9197 34.9976 22.9528 34.953 22.9846 34.9229L23.6733 35.6479L24.3621 36.3729C24.7124 36.04 24.8729 35.6058 24.8729 35.1588H23.8729ZM23.6733 35.6479L23.0043 34.9046C23.026 34.885 23.0596 34.8624 23.1026 34.8463C23.1449 34.8304 23.1785 34.8275 23.1942 34.8275V35.8275V36.8275C23.6165 36.8275 24.0175 36.6834 24.3423 36.3912L23.6733 35.6479ZM23.1942 35.8275V34.8275C23.202 34.8275 23.2346 34.829 23.2808 34.8463C23.3287 34.8643 23.3711 34.8919 23.4028 34.9219L22.715 35.6479L22.0273 36.3738C22.3602 36.6892 22.7754 36.8275 23.1942 36.8275V35.8275ZM22.715 35.6479L23.4221 34.9408C23.4549 34.9735 23.4854 35.0182 23.5052 35.0692C23.5241 35.1181 23.5254 35.1523 23.5254 35.1588H22.5254H21.5254C21.5254 35.5898 21.6713 36.0184 22.0079 36.355L22.715 35.6479ZM27.0971 35.1588H28.0971C28.0971 35.1794 28.0931 35.2201 28.0729 35.2696C28.0525 35.3196 28.0248 35.3558 28.0039 35.3767L27.2968 34.6696L26.5896 33.9625C26.2638 34.2884 26.0971 34.7081 26.0971 35.1588H27.0971ZM27.2968 34.6696L28.0039 35.3767C27.9862 35.3944 27.9519 35.4218 27.901 35.443C27.8498 35.4643 27.8045 35.47 27.7759 35.47V34.47V33.47C27.3213 33.47 26.9081 33.644 26.5896 33.9625L27.2968 34.6696ZM27.7759 34.47V35.47C27.7553 35.47 27.7145 35.466 27.665 35.4458C27.615 35.4254 27.5789 35.3977 27.5579 35.3767L28.265 34.6696L28.9721 33.9625C28.6462 33.6366 28.2266 33.47 27.7759 33.47V34.47ZM28.265 34.6696L27.5579 35.3767C27.5369 35.3558 27.5093 35.3196 27.4889 35.2696C27.4687 35.2201 27.4646 35.1794 27.4646 35.1588H28.4646H29.4646C29.4646 34.7081 29.298 34.2884 28.9721 33.9625L28.265 34.6696ZM28.4646 35.1588H27.4646C27.4646 35.1381 27.4687 35.0974 27.4889 35.0479C27.5093 34.9979 27.5369 34.9617 27.5579 34.9408L28.265 35.6479L28.9721 36.355C29.298 36.0291 29.4646 35.6094 29.4646 35.1588H28.4646ZM28.265 35.6479L27.5763 34.9229C27.5994 34.9008 27.6353 34.8756 27.6814 34.8577C27.7265 34.8402 27.7615 34.8375 27.7759 34.8375V35.8375V36.8375C28.2107 36.8375 28.6246 36.6856 28.9538 36.3729L28.265 35.6479ZM27.7759 35.8375V34.8375C27.798 34.8375 27.8375 34.8417 27.8844 34.8603C27.9316 34.879 27.9657 34.904 27.9855 34.9229L27.2968 35.6479L26.608 36.3729C26.93 36.6788 27.3375 36.8375 27.7759 36.8375V35.8375ZM27.2968 35.6479L28.0039 34.9408C28.0248 34.9617 28.0525 34.9979 28.0729 35.0479C28.0931 35.0974 28.0971 35.1381 28.0971 35.1588H27.0971H26.0971C26.0971 35.6094 26.2638 36.0291 26.5896 36.355L27.2968 35.6479ZM23.8929 28.0316H24.8929C24.8929 28.0808 24.8853 28.1699 24.8409 28.2765C24.794 28.3892 24.7174 28.493 24.6174 28.5729L23.9927 27.7921L23.368 27.0112C23.0062 27.3007 22.8929 27.7045 22.8929 28.0316H23.8929ZM23.9927 27.7921L24.6617 28.5354C24.6067 28.5848 24.5366 28.6299 24.4536 28.661C24.3714 28.6919 24.2945 28.7022 24.2323 28.7022V27.7022V26.7022C23.9031 26.7022 23.582 26.8164 23.3238 27.0488L23.9927 27.7921ZM24.2323 27.7022V28.7022H26.7378V27.7022V26.7022H24.2323V27.7022ZM26.7378 27.7022V28.7022C26.6878 28.7022 26.6111 28.6947 26.5214 28.661C26.4286 28.6262 26.3419 28.5709 26.2702 28.4992L26.9773 27.7921L27.6844 27.085C27.4038 26.8043 27.0518 26.7022 26.7378 26.7022V27.7022ZM26.9773 27.7921L26.3526 28.5729C26.2527 28.493 26.1761 28.3892 26.1291 28.2765C26.0847 28.1699 26.0771 28.0808 26.0771 28.0316H27.0771H28.0771C28.0771 27.7045 27.9639 27.3007 27.602 27.0112L26.9773 27.7921ZM27.0771 28.0316H26.0771C26.0771 27.9564 26.0912 27.8678 26.1291 27.7768C26.167 27.6859 26.2193 27.615 26.2702 27.5641L26.9773 28.2712L27.6844 28.9783C27.9364 28.7264 28.0771 28.393 28.0771 28.0316H27.0771ZM26.9773 28.2712L26.2702 27.5641C26.3419 27.4924 26.4286 27.437 26.5214 27.4022C26.6111 27.3686 26.6878 27.361 26.7378 27.361V28.361V29.361C27.0518 29.361 27.4038 29.2589 27.6844 28.9783L26.9773 28.2712ZM26.7378 28.361V27.361H24.2323V28.361V29.361H26.7378V28.361ZM24.2323 28.361V27.361C24.2945 27.361 24.3714 27.3714 24.4536 27.4022C24.5366 27.4333 24.6067 27.4784 24.6617 27.5279L23.9927 28.2712L23.3238 29.0145C23.582 29.2469 23.9031 29.361 24.2323 29.361V28.361ZM23.9927 28.2712L24.6998 27.5641C24.7508 27.615 24.8031 27.6859 24.8409 27.7768C24.8789 27.8678 24.8929 27.9564 24.8929 28.0316H23.8929H22.8929C22.8929 28.393 23.0337 28.7264 23.2856 28.9783L23.9927 28.2712ZM23.4138 37.6542L24.2682 38.1738L24.7174 37.4352L23.863 36.9156L23.0085 36.396L22.5593 37.1347L23.4138 37.6542ZM23.863 36.9156V37.9156H27.0971V36.9156V35.9156H23.863V36.9156ZM27.0971 36.9156L26.2478 37.4435L26.707 38.1822L27.5563 37.6542L28.4056 37.1263L27.9464 36.3876L27.0971 36.9156ZM27.5563 37.6542V36.6542H23.4138V37.6542V38.6542H27.5563V37.6542Z" fill="#141414" mask="url(#path-2-outside-1_1363_7898)"/>
</svg>
